<?xml version="1.0" encoding="utf-8"?>
<!-- Uploaded to: SVG Repo, www.svgrepo.com, Generator: SVG Repo Mixer Tools -->
<svg width="800px" height="800px" viewBox="0 -2 20 20" xmlns="http://www.w3.org/2000/svg">
  <g id="heading-2" transform="translate(-2 -4)">
    <path id="primary" d="M16,12v-.5A2.5,2.5,0,0,1,18.5,9h0A2.5,2.5,0,0,1,21,11.5v.33A2.52,2.52,0,0,1,19.74,14l-1.26.72A4.91,4.91,0,0,0,16,19h5" fill="none" stroke="#000000" stroke-linecap="round" stroke-linejoin="round" stroke-width="2"/>
    <path id="primary-2" data-name="primary" d="M4,5V19M5,5H3M5,19H3M11,5V19M10,5h2M10,19h2M4,12h7" fill="none" stroke="#000000" stroke-linecap="round" stroke-linejoin="round" stroke-width="2"/>
  </g>
</svg>